<?xml version="1.0" standalone="no"?><!DOCTYPE svg PUBLIC "-//W3C//DTD SVG 1.1//EN" "http://www.w3.org/Graphics/SVG/1.1/DTD/svg11.dtd"><svg t="1618389906327" class="icon" viewBox="0 0 1174 1024" version="1.1" xmlns="http://www.w3.org/2000/svg" p-id="7851" xmlns:xlink="http://www.w3.org/1999/xlink" width="229.296875" height="200"><defs><style type="text/css"></style></defs><path d="M587.105969 785.177233a47.38547 47.38547 0 0 1-31.27441-11.846368L236.927348 494.704304a47.38547 47.38547 0 0 1 31.27441-83.398427h100.457196V47.38547a47.38547 47.38547 0 0 1 47.38547-47.38547H758.167515a47.38547 47.38547 0 0 1 47.38547 47.38547v363.446552h100.93105a47.38547 47.38547 0 0 1 31.27441 83.398427l-319.378066 278.626562a47.38547 47.38547 0 0 1-31.27441 12.320222zM267.727904 458.691347l319.378065 279.100416 319.378066-279.100416H805.552985a47.38547 47.38547 0 0 1-47.38547-47.38547V47.38547H416.518279v363.446552a47.38547 47.38547 0 0 1-47.38547 47.38547z" p-id="7852" fill="#515151"></path><path d="M1105.976863 1024H68.235076A68.708931 68.708931 0 0 1 0 955.291069v-177.695511h47.38547v177.695511a21.323461 21.323461 0 0 0 20.849606 21.323461h1037.741787a21.323461 21.323461 0 0 0 20.849606-21.323461v-177.695511h47.38547v177.695511a68.708931 68.708931 0 0 1-68.235076 68.708931z" p-id="7853" fill="#515151"></path></svg>